<?xml version="1.0"?>
<svg xmlns="http://www.w3.org/2000/svg" xmlns:xlink="http://www.w3.org/1999/xlink" xmlns:svgjs="http://svgjs.com/svgjs" version="1.1" width="512" height="512" x="0" y="0" viewBox="0 0 24 24" style="enable-background:new 0 0 512 512" xml:space="preserve"><g><path xmlns="http://www.w3.org/2000/svg" d="M12,0A12,12,0,1,0,24,12,12.013,12.013,0,0,0,12,0Zm0,21a9,9,0,1,1,9-9A9.01,9.01,0,0,1,12,21Z" fill="#ffffff" data-original="#000000"/><circle xmlns="http://www.w3.org/2000/svg" cx="12.005" cy="17.5" r="1.5" fill="#ffffff" data-original="#000000"/><path xmlns="http://www.w3.org/2000/svg" d="M12.757,4.987a4.25,4.25,0,0,0-5,4.181,1.5,1.5,0,0,0,3,0,1.248,1.248,0,1,1,1.847,1.1,3.323,3.323,0,0,0-2.038,3.158,1.5,1.5,0,0,0,3,0,1.274,1.274,0,0,1,.016-.218,1.852,1.852,0,0,1,.471-.313,4.248,4.248,0,0,0-1.292-7.9Z" fill="#ffffff" data-original="#000000"/></g></svg>
