<?xml version="1.0"?>
<svg xmlns="http://www.w3.org/2000/svg" xmlns:xlink="http://www.w3.org/1999/xlink" xmlns:svgjs="http://svgjs.com/svgjs" version="1.1" width="512" height="512" x="0" y="0" viewBox="0 0 24 24" style="enable-background:new 0 0 512 512" xml:space="preserve"><g><path xmlns="http://www.w3.org/2000/svg" d="M8,4H4A4,4,0,0,0,0,8v4a2,2,0,0,0,2,2H7a5.006,5.006,0,0,1-5,5,1.5,1.5,0,0,0,0,3,8.009,8.009,0,0,0,8-8V6A2,2,0,0,0,8,4Z" fill="#ffffff" data-original="#000000"/><path xmlns="http://www.w3.org/2000/svg" d="M22,4H18a4,4,0,0,0-4,4v4a2,2,0,0,0,2,2h5a5.006,5.006,0,0,1-5,5,1.5,1.5,0,0,0,0,3,8.009,8.009,0,0,0,8-8V6A2,2,0,0,0,22,4Z" fill="#ffffff" data-original="#000000"/></g></svg>
